<?xml version="1.0" standalone="no"?>
<!DOCTYPE svg PUBLIC "-//W3C//DTD SVG 20010904//EN"
 "http://www.w3.org/TR/2001/REC-SVG-20010904/DTD/svg10.dtd">
<svg version="1.0" xmlns="http://www.w3.org/2000/svg"
 width="512.000000pt" height="512.000000pt" viewBox="0 0 512.000000 512.000000"
 preserveAspectRatio="xMidYMid meet">
<metadata>
Created by potrace 1.11, written by Peter Selinger 2001-2013
</metadata>
<g transform="translate(0.000000,512.000000) scale(0.100000,-0.100000)"
fill="#000000" stroke="none">
<path d="M2517 5084 c-1 -1 -60 -4 -131 -8 -71 -4 -132 -9 -135 -11 -4 -2 -33
-6 -65 -10 -60 -6 -193 -32 -205 -39 -3 -2 -22 -7 -41 -10 -45 -7 -271 -81
-327 -106 -24 -11 -45 -20 -48 -20 -3 0 -59 -26 -123 -58 -502 -250 -897 -646
-1147 -1151 -118 -237 -193 -476 -230 -736 -4 -22 -8 -51 -10 -65 -9 -50 -18
-227 -18 -325 1 -147 14 -293 39 -435 2 -14 7 -40 10 -59 11 -65 73 -280 109
-374 143 -384 410 -769 704 -1017 29 -25 58 -50 65 -55 89 -82 313 -225 474
-305 453 -224 924 -304 1448 -244 56 6 267 47 304 59 10 3 27 8 37 10 35 7
189 58 258 85 195 78 412 198 580 322 58 42 206 172 268 233 479 474 744 1101
750 1770 1 148 -8 285 -28 410 -25 162 -103 450 -146 539 -10 22 -19 44 -19
48 0 17 -105 225 -158 313 -125 207 -246 360 -410 519 -109 105 -95 93 -192
169 -47 37 -90 72 -97 77 -24 19 -190 124 -248 157 -83 46 -266 133 -279 133
-4 0 -22 7 -39 15 -69 31 -319 105 -407 119 -19 3 -46 8 -60 11 -14 3 -47 8
-75 11 -27 3 -55 7 -62 9 -19 6 -340 24 -346 19z"/>
</g>
</svg>
