<?xml version="1.0" standalone="no"?>
<!DOCTYPE svg PUBLIC "-//W3C//DTD SVG 20010904//EN"
 "http://www.w3.org/TR/2001/REC-SVG-20010904/DTD/svg10.dtd">
<svg version="1.0" xmlns="http://www.w3.org/2000/svg"
 width="512.000000pt" height="512.000000pt" viewBox="0 0 512.000000 512.000000"
 preserveAspectRatio="xMidYMid meet">
<metadata>
Created by potrace 1.11, written by Peter Selinger 2001-2013
</metadata>
<g transform="translate(0.000000,512.000000) scale(0.100000,-0.100000)"
fill="#000000" stroke="none">
<path d="M2427 5084 c-1 -2 -38 -5 -82 -8 -44 -3 -89 -8 -100 -10 -11 -2 -42
-7 -70 -10 -71 -9 -149 -25 -235 -48 -41 -11 -83 -21 -93 -23 -84 -17 -321
-114 -467 -192 -228 -120 -405 -251 -608 -450 -83 -82 -110 -99 -144 -94 -17
2 -157 -52 -206 -80 -158 -89 -273 -254 -307 -440 -6 -38 -12 -176 -13 -331 0
-146 -5 -283 -11 -305 -13 -47 -20 -85 -26 -143 -3 -25 -8 -52 -10 -60 -24
-84 -24 -488 -1 -650 2 -14 7 -47 10 -74 3 -26 10 -65 15 -85 6 -20 13 -52 16
-71 12 -72 76 -279 120 -390 194 -482 541 -903 980 -1185 108 -70 264 -153
365 -195 41 -17 84 -35 95 -40 97 -43 391 -120 520 -136 22 -3 54 -7 70 -10
185 -28 531 -23 705 11 14 2 40 7 58 10 65 11 168 34 195 44 15 6 27 9 27 6 0
-9 337 112 390 140 14 7 63 32 110 56 88 43 313 187 365 233 21 19 37 25 54
21 19 -5 22 -3 17 10 -4 11 11 31 47 63 460 411 752 940 842 1522 3 19 7 46
10 60 17 93 24 402 11 535 -10 115 -16 168 -21 185 -2 8 -7 34 -10 57 -4 32
-53 238 -69 288 -63 211 -174 450 -291 630 -322 493 -779 847 -1338 1036 -146
49 -391 100 -552 115 -74 6 -363 13 -368 8z"/>
</g>
</svg>
